<?xml version="1.0" encoding="UTF-8"?>
<svg version="1.1" xmlns="http://www.w3.org/2000/svg" width="454" height="320">
<path d="M0 0 C149.82 0 299.64 0 454 0 C454 105.6 454 211.2 454 320 C304.18 320 154.36 320 0 320 C0 214.4 0 108.8 0 0 Z " fill="#FDFDFD" transform="translate(0,0)"/>
<path d="M0 0 C1.23384133 1.07558777 2.44132546 2.18193906 3.625 3.3125 C4.37265625 3.96089844 5.1203125 4.60929688 5.890625 5.27734375 C13.76474323 12.48659438 19.01853116 21.70980567 20.625 32.3125 C20.625 36.9325 20.625 41.5525 20.625 46.3125 C-0.495 46.3125 -21.615 46.3125 -43.375 46.3125 C-40.3155018 55.74052631 -40.3155018 55.74052631 -33.5 61.625 C-28.0792418 63.37877471 -22.54346887 62.44069307 -17.375 60.3125 C-16.715 58.6625 -16.055 57.0125 -15.375 55.3125 C-4.155 55.3125 7.065 55.3125 18.625 55.3125 C14.89933045 66.48950865 10.28798698 73.92681706 -0.1875 79.5625 C-9.38538892 83.62330777 -18.25142231 84.84258623 -28.25 84.75 C-29.9669104 84.73864014 -29.9669104 84.73864014 -31.71850586 84.72705078 C-44.98119192 84.46809147 -55.68146635 81.58714797 -65.52734375 72.27734375 C-74.36161705 62.94953563 -79.30472753 51.3010692 -79.8125 38.4375 C-79.4082335 25.4167499 -73.82172681 14.03094521 -65.125 4.5 C-49.57772018 -10.00149867 -17.62170911 -12.35584681 0 0 Z " fill="#231F20" transform="translate(211.375,225.6875)"/>
<path d="M0 0 C11.88 0 23.76 0 36 0 C36 28.38 36 56.76 36 86 C25.11 86 14.22 86 3 86 C2.505 82.04 2.505 82.04 2 78 C1.53851563 78.45890625 1.07703125 78.9178125 0.6015625 79.390625 C-8.01260039 87.49406677 -15.84577042 89.60442554 -27.4543457 89.47290039 C-33.39695831 89.24282757 -37.94942851 88.25908621 -43 85 C-43.77730469 84.56429687 -44.55460937 84.12859375 -45.35546875 83.6796875 C-50.78907877 80.43547662 -54.46891086 76.86444314 -57 71 C-57.96137619 67.10544463 -58.12130171 63.47037825 -58.11352539 59.46557617 C-58.11344986 58.16460495 -58.11337433 56.86363373 -58.11329651 55.52323914 C-58.10819062 54.11314861 -58.10297464 52.70305849 -58.09765625 51.29296875 C-58.09578979 49.84279937 -58.09436696 48.39262935 -58.09336853 46.94245911 C-58.0895613 43.13667034 -58.07974642 39.33092009 -58.06866455 35.52514648 C-58.05660725 30.95292202 -58.05203964 26.38068463 -58.04621124 21.80844879 C-58.03653363 14.87227245 -58.01736457 7.93618054 -58 1 C-46.78 1 -35.56 1 -24 1 C-23.94392578 6.54361328 -23.94392578 6.54361328 -23.88671875 12.19921875 C-23.8405021 15.78025213 -23.78926879 19.36118105 -23.73754883 22.94213867 C-23.70430343 25.43002978 -23.67627034 27.91799624 -23.65356445 30.40600586 C-23.6200123 33.98323668 -23.56769408 37.55977719 -23.51171875 41.13671875 C-23.50532883 42.24834885 -23.4989389 43.35997894 -23.49235535 44.5052948 C-23.46266411 46.06634697 -23.46266411 46.06634697 -23.43237305 47.65893555 C-23.41571846 49.02794258 -23.41571846 49.02794258 -23.39872742 50.42460632 C-22.75288783 54.59610575 -20.97842675 57.23312498 -17.6875 59.8125 C-13.23013857 61.7820318 -10.25939309 61.48438196 -5.75 59.75 C-2.79398153 57.86889734 -2.2075396 57.17360995 -1 54 C-0.67497577 51.41610264 -0.67497577 51.41610264 -0.68115234 48.58886719 C-0.66128265 47.50804871 -0.64141296 46.42723022 -0.62094116 45.31365967 C-0.60938995 44.15312073 -0.59783875 42.99258179 -0.5859375 41.796875 C-0.56657135 40.60394836 -0.5472052 39.41102173 -0.5272522 38.1819458 C-0.46746733 34.37136996 -0.42107473 30.5607639 -0.375 26.75 C-0.33681928 24.16665348 -0.2977675 21.58331968 -0.2578125 19 C-0.16012714 12.66673278 -0.08054781 6.33360125 0 0 Z " fill="#231F20" transform="translate(306,222)"/>
<path d="M0 0 C1.37031372 0.00628418 1.37031372 0.00628418 2.76831055 0.01269531 C14.75454925 0.21181282 26.51381185 2.20573405 35.5 10.6875 C40.48577775 16.03753548 41.83391285 20.00908244 41.6875 27.3125 C37.32765539 27.43613227 32.96873945 27.52684908 28.60766602 27.5871582 C27.12441232 27.6122981 25.64128247 27.64641592 24.15844727 27.68969727 C22.02589405 27.75038258 19.89497795 27.77871116 17.76171875 27.80078125 C15.83718872 27.84005737 15.83718872 27.84005737 13.8737793 27.88012695 C10.6875 27.3125 10.6875 27.3125 8.93286133 24.84448242 C8.52189209 24.00892822 8.11092285 23.17337402 7.6875 22.3125 C3.42949462 20.89316487 -0.54161538 20.58598323 -4.75 22.3125 C-5.265625 22.6425 -5.78125 22.9725 -6.3125 23.3125 C-6.3125 24.6325 -6.3125 25.9525 -6.3125 27.3125 C0.50013762 30.23443403 7.25222979 32.34379092 14.4375 34.125 C26.04078554 37.1610447 37.29531535 40.29813221 44.6875 50.3125 C45.89495835 53.93487505 45.90996029 57.2895595 45.9375 61.0625 C45.958125 61.7534375 45.97875 62.444375 46 63.15625 C46.05895526 70.99729996 43.01370661 76.76402813 37.765625 82.453125 C27.85174502 91.32343866 14.69540341 91.70463401 2.0625 91.6875 C0.82935059 91.68588867 -0.40379883 91.68427734 -1.67431641 91.68261719 C-14.45034837 91.51139721 -26.38450845 90.36302453 -36.32421875 81.5234375 C-41.42626621 75.93378178 -44.3125 69.99451338 -44.3125 62.3125 C-33.4225 62.3125 -22.5325 62.3125 -11.3125 62.3125 C-9.3325 65.7775 -9.3325 65.7775 -7.3125 69.3125 C-3.39669707 72.13281044 1.04735552 71.84036965 5.6875 71.3125 C8.34594217 70.46729867 8.34594217 70.46729867 9.6875 68.3125 C9.74537503 65.97988453 9.74952047 63.64500893 9.6875 61.3125 C8.6459375 61.07015625 7.604375 60.8278125 6.53125 60.578125 C2.70830741 59.68656965 -1.11104129 58.78026595 -4.93017578 57.87255859 C-7.16823598 57.34641491 -9.4095353 56.83747464 -11.65234375 56.33203125 C-21.67704337 54.02599611 -31.69820643 51.7179232 -38.19140625 43.109375 C-42.3847611 36.38831844 -41.7386921 28.83496423 -40.3125 21.3125 C-39.07868336 18.20492033 -37.47454241 15.84884949 -35.3125 13.3125 C-34.78269531 12.68601563 -34.25289063 12.05953125 -33.70703125 11.4140625 C-24.63434224 1.57320531 -12.87766236 -0.08142083 0 0 Z " fill="#231F20" transform="translate(400.3125,219.6875)"/>
<path d="M0 0 C0 11.55 0 23.1 0 35 C-7.92 35.495 -7.92 35.495 -16 36 C-21.60778318 38.42545252 -21.60778318 38.42545252 -25.06054688 42.99194336 C-26.38288559 47.22597019 -26.35697339 51.26287295 -26.4140625 55.67578125 C-26.43342865 56.6009404 -26.4527948 57.52609955 -26.4727478 58.47929382 C-26.53235254 61.42360317 -26.57885248 64.36795202 -26.625 67.3125 C-26.66319736 69.31316775 -26.70225012 71.31381936 -26.7421875 73.31445312 C-26.83964276 78.20954972 -26.91936295 83.10448202 -27 88 C-39.21 88 -51.42 88 -64 88 C-64 59.29 -64 30.58 -64 1 C-53.44 1 -42.88 1 -32 1 C-31.505 8.425 -31.505 8.425 -31 16 C-30.278125 14.5975 -29.55625 13.195 -28.8125 11.75 C-25.82238313 6.42124423 -22.98387339 3.9919367 -17.5 1.25 C-13 0 -13 0 0 0 Z " fill="#262223" transform="translate(125,220)"/>
<path d="M0 0 C12.87 0 25.74 0 39 0 C39 12.87 39 25.74 39 39 C26.13 39 13.26 39 0 39 C0 26.13 0 13.26 0 0 Z " fill="#7BC140" transform="translate(61,148)"/>
<path d="M0 0 C12.87 0 25.74 0 39 0 C39 12.54 39 25.08 39 38 C26.13 38.33 13.26 38.66 0 39 C0 26.13 0 13.26 0 0 Z " fill="#D4E8C1" transform="translate(61,17)"/>
<path d="M0 0 C12.54 0 25.08 0 38 0 C38 12.87 38 25.74 38 39 C25.46 39 12.92 39 0 39 C0 26.13 0 13.26 0 0 Z " fill="#7BC140" transform="translate(193,148)"/>
<path d="M0 0 C12.54 0 25.08 0 38 0 C38 12.87 38 25.74 38 39 C25.46 39 12.92 39 0 39 C0 26.13 0 13.26 0 0 Z " fill="#7BC140" transform="translate(127,148)"/>
<path d="M0 0 C12.87 0 25.74 0 39 0 C39 12.54 39 25.08 39 38 C26.13 38 13.26 38 0 38 C0 25.46 0 12.92 0 0 Z " fill="#BCDC9A" transform="translate(61,83)"/>
<path d="M0 0 C12.54 0 25.08 0 38 0 C38 12.54 38 25.08 38 38 C25.46 38 12.92 38 0 38 C0 25.46 0 12.92 0 0 Z " fill="#BCDC9A" transform="translate(193,83)"/>
<path d="M0 0 C12.54 0 25.08 0 38 0 C38 12.54 38 25.08 38 38 C25.46 38 12.92 38 0 38 C0 25.46 0 12.92 0 0 Z " fill="#BCDC9A" transform="translate(127,83)"/>
<path d="M0 0 C12.54 0 25.08 0 38 0 C38 12.54 38 25.08 38 38 C25.46 38 12.92 38 0 38 C0 25.46 0 12.92 0 0 Z " fill="#D4E8C2" transform="translate(193,17)"/>
<path d="M0 0 C12.54 0 25.08 0 38 0 C38 12.54 38 25.08 38 38 C25.46 38 12.92 38 0 38 C0 25.46 0 12.92 0 0 Z " fill="#D4E7C1" transform="translate(127,17)"/>
<path d="M0 0 C12.87 0 25.74 0 39 0 C39 12.87 39 25.74 39 39 C26.13 39 13.26 39 0 39 C0 26.13 0 13.26 0 0 Z M2 2 C1.74657764 6.30647636 1.81477362 10.62445054 1.8125 14.9375 C1.80025391 16.15630859 1.78800781 17.37511719 1.77539062 18.63085938 C1.77345703 19.79294922 1.77152344 20.95503906 1.76953125 22.15234375 C1.76542236 23.22476318 1.76131348 24.29718262 1.75708008 25.40209961 C1.73638677 28.16185604 1.73638677 28.16185604 4 30 C7.20813626 30.27917295 7.20813626 30.27917295 10.9765625 30.1953125 C12.00443375 30.19106766 12.00443375 30.19106766 13.05307007 30.18673706 C15.24389027 30.17553281 17.43430316 30.15042859 19.625 30.125 C21.1093691 30.11497048 22.5937446 30.10584458 24.078125 30.09765625 C27.71888261 30.07559294 31.35940156 30.04106176 35 30 C34.505 31.485 34.505 31.485 34 33 C18.655 33.495 18.655 33.495 3 34 C3 34.66 3 35.32 3 36 C14.22 36.33 25.44 36.66 37 37 C37.80610344 29.745069 38.21454362 22.88469396 38.25 15.625 C38.270625 14.54605469 38.29125 13.46710938 38.3125 12.35546875 C38.31765625 11.32292969 38.3228125 10.29039062 38.328125 9.2265625 C38.3374707 8.29408691 38.34681641 7.36161133 38.35644531 6.40087891 C38.15440004 4.00247428 38.15440004 4.00247428 36.93310547 2.19384766 C33.91808599 0.33183134 31.25154738 0.64700113 27.7421875 0.671875 C27.03853058 0.67374817 26.33487366 0.67562134 25.6098938 0.67755127 C24.12546028 0.6842649 22.64104426 0.69816591 21.15673828 0.71875 C18.87646172 0.74997998 16.59687573 0.7597285 14.31640625 0.765625 C7.64921821 0.13443401 7.64921821 0.13443401 2 2 Z " fill="#7EBE49" transform="translate(61,148)"/>
<path d="M0 0 C12.54 0 25.08 0 38 0 C38 12.54 38 25.08 38 38 C25.46 38 12.92 38 0 38 C0 25.46 0 12.92 0 0 Z M3 2 C3 13.22 3 24.44 3 36 C9.80625 36.061875 9.80625 36.061875 16.75 36.125 C18.17538086 36.14320801 19.60076172 36.16141602 21.06933594 36.18017578 C22.19629883 36.1851709 23.32326172 36.19016602 24.484375 36.1953125 C25.63647461 36.20578613 26.78857422 36.21625977 27.97558594 36.22705078 C30.89892966 36.00758762 32.53732509 35.52728122 35 34 C35.04254356 32.00045254 35.04080783 29.99958364 35 28 C34.67 27.67 34.34 27.34 34 27 C33.9008243 24.85605481 33.8702985 22.70873268 33.875 20.5625 C33.87242187 19.38816406 33.86984375 18.21382812 33.8671875 17.00390625 C34 14 34 14 35 12 C35.06996014 10.29297265 35.08440154 8.58331997 35.0625 6.875 C35.05347656 5.96492188 35.04445312 5.05484375 35.03515625 4.1171875 C35.02355469 3.41851562 35.01195312 2.71984375 35 2 C30.92514175 1.83219605 26.8500684 1.67165682 22.7746582 1.51782227 C21.38851232 1.46447778 20.00244111 1.40915441 18.61645508 1.35180664 C16.62341774 1.26968579 14.63006691 1.19528785 12.63671875 1.12109375 C11.43748779 1.0739624 10.23825684 1.02683105 9.00268555 0.97827148 C5.94774622 0.84555423 5.94774622 0.84555423 3 2 Z " fill="#C1D7A7" transform="translate(193,83)"/>
<path d="M0 0 C12.54 0 25.08 0 38 0 C38 12.87 38 25.74 38 39 C25.46 39 12.92 39 0 39 C0 26.13 0 13.26 0 0 Z M2 1 C2 12.55 2 24.1 2 36 C12.89 36 23.78 36 35 36 C35 33.69 35 31.38 35 29 C34.34 29 33.68 29 33 29 C33 23.39 33 17.78 33 12 C33.66 12 34.32 12 35 12 C35 8.7 35 5.4 35 2 C32.02640551 0.51320275 29.33700821 0.88887395 26.0234375 0.90234375 C24.14277588 0.90609009 24.14277588 0.90609009 22.22412109 0.90991211 C20.62391113 0.91901611 19.02370117 0.92812012 17.375 0.9375 C12.30125 0.958125 7.2275 0.97875 2 1 Z " fill="#85B757" transform="translate(127,148)"/>
<path d="M0 0 C4.7307526 1.60507677 7.32223055 3.77736356 10 8 C10 9.32 10 10.64 10 12 C-0.23 12 -10.46 12 -21 12 C-19.91264568 6.5632284 -18.99720026 5.52134308 -15 2 C-10.32231313 -1.11845791 -5.4785365 -0.46440574 0 0 Z " fill="#F7F7F7" transform="translate(188,241)"/>
<path d="M0 0 C5.4809035 -0.09893328 10.96128645 -0.17149865 16.44287109 -0.21972656 C18.30722101 -0.23983261 20.17150794 -0.2671218 22.03564453 -0.30175781 C24.71662948 -0.35032121 27.39678023 -0.37297838 30.078125 -0.390625 C30.91055725 -0.41127014 31.7429895 -0.43191528 32.60064697 -0.45318604 C36.22923953 -0.45459062 38.382538 -0.37804528 41.52172852 1.54394531 C43.53383942 4.88694047 43.58440802 7.89397403 43.57421875 11.6875 C43.58838333 12.42701904 43.60254791 13.16653809 43.61714172 13.9284668 C43.65897699 16.28579287 43.67426292 18.6423554 43.6875 21 C43.71661717 23.35728767 43.75123913 25.71438495 43.78999329 28.0715332 C43.81236148 29.53612662 43.82825304 31.00083711 43.83683777 32.46557617 C43.87180524 35.7836058 43.97851383 38.82589619 45 42 C40.24855357 44.47497565 35.96207372 44.17374025 30.76171875 43.9765625 C29.88095169 43.95153656 29.00018463 43.92651062 28.09272766 43.90072632 C25.29057668 43.81881526 22.4891612 43.72211464 19.6875 43.625 C17.78323278 43.56673088 15.87893573 43.50942825 13.97460938 43.453125 C9.31598626 43.31327958 4.65796676 43.16017201 0 43 C-0.16759211 37.35849247 -0.32815426 31.71684548 -0.48217773 26.07495117 C-0.53557803 24.15529992 -0.59090586 22.23570129 -0.64819336 20.31616211 C-0.73015919 17.55854641 -0.80521256 14.80081636 -0.87890625 12.04296875 C-0.90594131 11.18350143 -0.93297638 10.32403412 -0.96083069 9.43852234 C-0.98092697 8.63791885 -1.00102325 7.83731537 -1.02172852 7.01245117 C-1.04171402 6.3085173 -1.06169952 5.60458344 -1.08229065 4.87931824 C-1 3 -1 3 0 0 Z M2 2 C2 14.87 2 27.74 2 41 C14.87 41 27.74 41 41 41 C41 28.13 41 15.26 41 2 C28.13 2 15.26 2 2 2 Z " fill="#EFFEE5" transform="translate(59,146)"/>
<path d="M0 0 C12.54 0 25.08 0 38 0 C38 12.87 38 25.74 38 39 C25.46 39 12.92 39 0 39 C0 26.13 0 13.26 0 0 Z M3 1 C1.95369639 4.13891082 1.87085606 6.36293046 1.8671875 9.65625 C1.86589844 10.76097656 1.86460937 11.86570313 1.86328125 13.00390625 C1.86714844 14.15761719 1.87101563 15.31132812 1.875 16.5 C1.87113281 17.65371094 1.86726562 18.80742187 1.86328125 19.99609375 C1.86457031 21.10082031 1.86585938 22.20554688 1.8671875 23.34375 C1.86831543 24.35630859 1.86944336 25.36886719 1.87060547 26.41210938 C1.88975524 29.11669611 1.88975524 29.11669611 3 32 C3 33.32 3 34.64 3 36 C5.78943085 37.39471542 8.09760419 37.12973765 11.21484375 37.1328125 C13.07979492 37.13474609 13.07979492 37.13474609 14.98242188 37.13671875 C16.28759766 37.13285156 17.59277344 37.12898438 18.9375 37.125 C20.23880859 37.12886719 21.54011719 37.13273437 22.88085938 37.13671875 C24.12544922 37.13542969 25.37003906 37.13414062 26.65234375 37.1328125 C27.79695068 37.13168457 28.94155762 37.13055664 30.12084961 37.12939453 C33.07082167 37.12823513 33.07082167 37.12823513 36 36 C36.02934144 32.02084915 36.04691265 28.04172663 36.0625 24.0625 C36.07506836 22.38704102 36.07506836 22.38704102 36.08789062 20.67773438 C36.10641749 14.36007333 35.84339417 8.26236773 35 2 C31.45811722 0.90171231 28.1790238 0.88554989 24.484375 0.90234375 C22.60878906 0.90717773 22.60878906 0.90717773 20.6953125 0.91210938 C19.39335937 0.92048828 18.09140625 0.92886719 16.75 0.9375 C15.43257812 0.94201172 14.11515625 0.94652344 12.7578125 0.95117188 C9.50516259 0.96295684 6.25260416 0.97940989 3 1 Z " fill="#84B858" transform="translate(193,148)"/>
<path d="M0 0 C12.87 0 25.74 0 39 0 C39 12.54 39 25.08 39 38 C26.13 38 13.26 38 0 38 C0 25.46 0 12.92 0 0 Z M2.08496094 3.12597656 C0.48653702 5.88689061 0.62840432 8.13773587 0.63671875 11.3125 C0.63736328 12.55257812 0.63800781 13.79265625 0.63867188 15.0703125 C0.65478516 16.36710937 0.67089844 17.66390625 0.6875 19 C0.68427734 20.29679687 0.68105469 21.59359375 0.67773438 22.9296875 C0.42274541 29.85131456 0.42274541 29.85131456 3 36 C6.26772083 36.45202611 6.26772083 36.45202611 10.125 36.36328125 C10.8277002 36.36377975 11.53040039 36.36427826 12.25439453 36.36479187 C13.74058865 36.36245061 15.22678667 36.35271888 16.71289062 36.33618164 C18.99124505 36.31259065 21.26842953 36.31561934 23.546875 36.32226562 C30.88975853 36.90316567 30.88975853 36.90316567 37 34 C37.27917295 30.79186374 37.27917295 30.79186374 37.1953125 27.0234375 C37.19106766 25.99556625 37.19106766 25.99556625 37.18673706 24.94692993 C37.17553281 22.75610973 37.15042859 20.56569684 37.125 18.375 C37.11497048 16.8906309 37.10584458 15.4062554 37.09765625 13.921875 C37.07559294 10.28111739 37.04106176 6.64059844 37 3 C32.60008044 0.80004022 26.66047579 1.77290074 21.76928711 1.75976562 C19.57432267 1.75005232 17.38029178 1.71902591 15.18554688 1.6875 C13.79167223 1.68097052 12.39779089 1.67571983 11.00390625 1.671875 C9.73361572 1.6625293 8.4633252 1.65318359 7.15454102 1.64355469 C4.08819157 1.77339803 4.08819157 1.77339803 2.08496094 3.12597656 Z " fill="#C1D6AC" transform="translate(61,83)"/>
<path d="M0 0 C3.0625 1.5625 3.0625 1.5625 5 4 C5.625 7.5 5.625 7.5 5 11 C2.88830939 13.57362294 1.35949456 14.78732659 -1.97265625 15.30859375 C-5.73112515 15.42802173 -8.9064453 15.22735938 -12 13 C-13.60114721 9.79770558 -13.48323075 6.47499763 -13 3 C-10.00199954 -1.17113108 -4.671522 -0.73148387 0 0 Z " fill="#2E2C2D" transform="translate(27,270)"/>
<path d="M0 0 C3.0625 1.5625 3.0625 1.5625 5 4 C5.625 7.5 5.625 7.5 5 11 C2.88830939 13.57362294 1.35949456 14.78732659 -1.97265625 15.30859375 C-5.73112515 15.42802173 -8.9064453 15.22735938 -12 13 C-13.60114721 9.79770558 -13.48323075 6.47499763 -13 3 C-10.00199954 -1.17113108 -4.671522 -0.73148387 0 0 Z " fill="#2C2C2C" transform="translate(27,70)"/>
<path d="M0 0 C12.54 0 25.08 0 38 0 C38 12.54 38 25.08 38 38 C25.46 38 12.92 38 0 38 C0 25.46 0 12.92 0 0 Z M1 1 C0.979375 6.589375 0.95875 12.17875 0.9375 17.9375 C0.928396 19.70343506 0.91929199 21.46937012 0.90991211 23.28881836 C0.90699286 24.68082605 0.90444433 26.07283459 0.90234375 27.46484375 C0.89722778 28.19384888 0.89211182 28.922854 0.88684082 29.6739502 C0.88652989 31.44970076 0.93771485 33.22534208 1 35 C3.66598561 37.66598561 11.31537745 36.22998098 15.15527344 36.24023438 C17.35910929 36.24993009 19.56200869 36.28093522 21.765625 36.3125 C23.16405695 36.31903089 24.56249558 36.32428103 25.9609375 36.328125 C27.23759277 36.3374707 28.51424805 36.34681641 29.82958984 36.35644531 C32.93901364 36.25349475 32.93901364 36.25349475 34.90795898 34.71972656 C36.85825335 31.64843805 36.58674482 28.03834846 36.6875 24.5 C36.72093506 23.69643066 36.75437012 22.89286133 36.78881836 22.06494141 C37.02148016 16.04474169 37.11941979 10.02406515 37 4 C36.01 4 35.02 4 34 4 C34.33 3.01 34.66 2.02 35 1 C23.78 1 12.56 1 1 1 Z " fill="#C1D6AE" transform="translate(127,83)"/>
<path d="M0 0 C12.87 0 25.74 0 39 0 C39 12.87 39 25.74 39 39 C27.12 39 15.24 39 3 39 C3 38.67 3 38.34 3 38 C14.55 38 26.1 38 38 38 C37.67 26.12 37.34 14.24 37 2 C28.6159375 1.9690625 28.6159375 1.9690625 20.0625 1.9375 C18.29656494 1.928396 16.53062988 1.91929199 14.71118164 1.90991211 C13.31917395 1.90699286 11.92716541 1.90444433 10.53515625 1.90234375 C9.80615112 1.89722778 9.077146 1.89211182 8.3260498 1.88684082 C6.55029924 1.88652989 4.77465792 1.93771485 3 2 C1.60476145 3.16748999 1.60476145 3.16748999 1.88647461 6.41821289 C1.88663372 7.93636988 1.89232774 9.45453229 1.90234375 10.97265625 C1.9037587 11.77029892 1.90517365 12.56794159 1.90663147 13.38975525 C1.91224684 15.94737435 1.92480188 18.50490718 1.9375 21.0625 C1.94251302 22.79231645 1.94707627 24.52213426 1.95117188 26.25195312 C1.96222125 30.50133553 1.97949614 34.75065312 2 39 C1.34 39 0.68 39 0 39 C0 26.13 0 13.26 0 0 Z " fill="#88B262" transform="translate(61,148)"/>
<path d="M0 0 C0.99 0.33 1.98 0.66 3 1 C2.93433838 1.77239014 2.86867676 2.54478027 2.80102539 3.34057617 C2.12340975 11.661746 1.71576051 19.96924622 1.4375 28.3125 C1.37272461 30.15618164 1.37272461 30.15618164 1.30664062 32.03710938 C1.20201836 35.0246562 1.10066029 38.01231706 1 41 C-6.92 41 -14.84 41 -23 41 C-23 40.34 -23 39.68 -23 39 C-24.258125 39.144375 -25.51625 39.28875 -26.8125 39.4375 C-27.52019531 39.51871094 -28.22789062 39.59992188 -28.95703125 39.68359375 C-31.19396393 39.97170735 -31.19396393 39.97170735 -34 41 C-34 40.34 -34 39.68 -34 39 C-35.32 39.66 -36.64 40.32 -38 41 C-38 40.01 -38 39.02 -38 38 C-25.46 38 -12.92 38 0 38 C0 25.46 0 12.92 0 0 Z " fill="#F6FEEC" transform="translate(231,83)"/>
<path d="M0 0 C0.99 0 1.98 0 3 0 C3 1.32 3 2.64 3 4 C2.34 4 1.68 4 1 4 C1 5.32 1 6.64 1 8 C1.99 7.67 2.98 7.34 4 7 C5.71567661 3.49705129 5.71567661 3.49705129 7 0 C10.375 -0.125 10.375 -0.125 14 0 C16 2 16 2 16.3125 5.9375 C16.24424398 8.62386205 16.18435641 9.71907595 14.6875 12 C13 13 13 13 10 13 C10 11.68 10 10.36 10 9 C10.66 8.67 11.32 8.34 12 8 C12 6.68 12 5.36 12 4 C11.34 4 10.68 4 10 4 C9.525625 5.134375 9.05125 6.26875 8.5625 7.4375 C7 11 7 11 6 12 C3.0625 12.1875 3.0625 12.1875 0 12 C-2 10 -2 10 -2.265625 8.125 C-2.26046875 7.42375 -2.2553125 6.7225 -2.25 6 C-2.25515625 5.29875 -2.2603125 4.5975 -2.265625 3.875 C-2 2 -2 2 0 0 Z " fill="#2B2A2A" transform="translate(16,21)"/>
<path d="M0 0 C0.99 0 1.98 0 3 0 C3 1.32 3 2.64 3 4 C2.34 4 1.68 4 1 4 C1 5.65 1 7.3 1 9 C1.99 9 2.98 9 4 9 C4.19916016 8.15115234 4.19916016 8.15115234 4.40234375 7.28515625 C4.57894531 6.55167969 4.75554688 5.81820312 4.9375 5.0625 C5.11152344 4.33160156 5.28554688 3.60070312 5.46484375 2.84765625 C6 1 6 1 7 0 C10.4375 -0.1875 10.4375 -0.1875 14 0 C16 2 16 2 16.3125 5.9375 C16.24424398 8.62386205 16.18435641 9.71907595 14.6875 12 C13 13 13 13 10 13 C10 11.68 10 10.36 10 9 C10.66 8.67 11.32 8.34 12 8 C12 6.68 12 5.36 12 4 C11.34 4 10.68 4 10 4 C9.525625 5.134375 9.05125 6.26875 8.5625 7.4375 C7 11 7 11 6 12 C3.0625 12.1875 3.0625 12.1875 0 12 C-2 10 -2 10 -2.265625 8.125 C-2.26046875 7.42375 -2.2553125 6.7225 -2.25 6 C-2.25515625 5.29875 -2.2603125 4.5975 -2.265625 3.875 C-2 2 -2 2 0 0 Z " fill="#262525" transform="translate(16,221)"/>
<path d="M0 0 C1.47668858 0.0133035 2.95331108 0.03716415 4.4296875 0.0703125 C5.18378906 0.07933594 5.93789063 0.08835938 6.71484375 0.09765625 C8.57826004 0.1212438 10.44151343 0.15711531 12.3046875 0.1953125 C12.3046875 1.1853125 12.3046875 2.1753125 12.3046875 3.1953125 C7.3546875 3.5253125 2.4046875 3.8553125 -2.6953125 4.1953125 C-2.3653125 5.5153125 -2.0353125 6.8353125 -1.6953125 8.1953125 C5.2346875 8.6903125 5.2346875 8.6903125 12.3046875 9.1953125 C12.3046875 10.5153125 12.3046875 11.8353125 12.3046875 13.1953125 C6.3646875 13.1953125 0.4246875 13.1953125 -5.6953125 13.1953125 C-5.3653125 11.8753125 -5.0353125 10.5553125 -4.6953125 9.1953125 C-5.3553125 8.5353125 -6.0153125 7.8753125 -6.6953125 7.1953125 C-6.19057522 2.14793973 -5.34645899 0.2825824 0 0 Z " fill="#2D2D2D" transform="translate(19.6953125,245.8046875)"/>
<path d="M0 0 C5.61 0 11.22 0 17 0 C17 0.99 17 1.98 17 3 C12.05 3.33 7.1 3.66 2 4 C2.33 5.32 2.66 6.64 3 8 C9.93 8.495 9.93 8.495 17 9 C17 10.32 17 11.64 17 13 C11.06 13 5.12 13 -1 13 C-1.125 2.25 -1.125 2.25 0 0 Z " fill="#2E2E2E" transform="translate(15,45)"/>
<path d="M0 0 C5.94 0 11.88 0 18 0 C18 3.63 18 7.26 18 11 C13.66061709 13.16969145 11.51609592 13.21326104 6.75 13.125 C5.48671875 13.10695312 4.2234375 13.08890625 2.921875 13.0703125 C1.95765625 13.04710937 0.9934375 13.02390625 0 13 C0 11.68 0 10.36 0 9 C4.62 8.67 9.24 8.34 14 8 C14 7.01 14 6.02 14 5 C11.29816945 3.64908472 8.88191794 3.66141942 5.875 3.4375 C4.23144531 3.31181641 4.23144531 3.31181641 2.5546875 3.18359375 C1.71164062 3.12300781 0.86859375 3.06242188 0 3 C0 2.01 0 1.02 0 0 Z " fill="#484647" transform="translate(14,160)"/>
<path d="M0 0 C0 13.53 0 27.06 0 41 C-0.99 40.67 -1.98 40.34 -3 40 C-3 27.13 -3 14.26 -3 1 C-15.54 1 -28.08 1 -41 1 C-41 0.67 -41 0.34 -41 0 C-36.44703108 -0.16889799 -31.89386731 -0.329307 -27.34033203 -0.48217773 C-25.79435369 -0.53523708 -24.24845031 -0.59053336 -22.70263672 -0.64819336 C-20.46858892 -0.73112283 -18.23438675 -0.80575074 -16 -0.87890625 C-15.31945557 -0.90594131 -14.63891113 -0.93297638 -13.93774414 -0.96083069 C-9.07347836 -1.10892422 -4.94881204 -0.6186015 0 0 Z " fill="#EEFEE1" transform="translate(168,147)"/>
<path d="M0 0 C0 0.99 0 1.98 0 3 C-0.99 3.495 -0.99 3.495 -2 4 C-2.33 5.32 -2.66 6.64 -3 8 C0.3 8 3.6 8 7 8 C7 6.68 7 5.36 7 4 C6.34 3.67 5.68 3.34 5 3 C5 2.01 5 1.02 5 0 C7.9375 0.375 7.9375 0.375 11 1 C12.39935013 3.79870027 12.25265405 5.90498792 12 9 C10.45493534 11.03667615 9.27853844 11.86073078 7 13 C1.97371884 13.37934197 -0.92858056 13.02448301 -5 10 C-7 8 -7 8 -7.3125 5.5625 C-7 3 -7 3 -5.75 1.1875 C-4 0 -4 0 0 0 Z " fill="#2C2C2C" transform="translate(20,135)"/>
<path d="M0 0 C0 0.99 0 1.98 0 3 C-0.99 3.495 -0.99 3.495 -2 4 C-2.33 5.32 -2.66 6.64 -3 8 C0.3 8 3.6 8 7 8 C7 6.68 7 5.36 7 4 C6.34 3.67 5.68 3.34 5 3 C5 2.01 5 1.02 5 0 C7.9375 0.375 7.9375 0.375 11 1 C12.39935013 3.79870027 12.25265405 5.90498792 12 9 C10.45493534 11.03667615 9.27853844 11.86073078 7 13 C1.97371884 13.37934197 -0.92858056 13.02448301 -5 10 C-7 8 -7 8 -7.3125 5.5625 C-7 3 -7 3 -5.75 1.1875 C-4 0 -4 0 0 0 Z " fill="#242223" transform="translate(20,111)"/>
<path d="M0 0 C1.32 0 2.64 0 4 0 C4 0.99 4 1.98 4 3 C3.01 3.495 3.01 3.495 2 4 C1.67 5.32 1.34 6.64 1 8 C4.3 8 7.6 8 11 8 C11.33 7.01 11.66 6.02 12 5 C11.01 4.34 10.02 3.68 9 3 C9 2.01 9 1.02 9 0 C11.9375 0.375 11.9375 0.375 15 1 C16.39935013 3.79870027 16.25265405 5.90498792 16 9 C14.14657225 11.55949546 13.06243607 11.97918798 10 13 C6.3174731 13.27277977 3.56804552 13.1933772 0.0625 12 C-2.31983434 9.68985761 -2.34493739 9.12512492 -2.4375 5.9375 C-2 2 -2 2 0 0 Z " fill="#272727" transform="translate(16,296)"/>
<path d="M0 0 C1 1 1 1 1.11352539 4.69360352 C1.11336624 6.33871292 1.10766988 7.98382731 1.09765625 9.62890625 C1.0962413 10.49313705 1.09482635 11.35736786 1.09336853 12.24778748 C1.08775239 15.01939292 1.07519719 17.7909188 1.0625 20.5625 C1.05748708 22.4368478 1.05292381 24.31119685 1.04882812 26.18554688 C1.03777772 30.79039544 1.0205023 35.39518421 1 40 C0.01 40.495 0.01 40.495 -1 41 C-1 28.13 -1 15.26 -1 2 C-13.54 2 -26.08 2 -39 2 C-39 1.67 -39 1.34 -39 1 C-34.73166324 0.85588231 -30.46327202 0.71353511 -26.19482422 0.57275391 C-24.74591519 0.52472555 -23.29702149 0.4762324 -21.84814453 0.42724609 C-19.75296934 0.35649242 -17.6577428 0.28746898 -15.5625 0.21875 C-13.67724609 0.1559082 -13.67724609 0.1559082 -11.75390625 0.09179688 C-7.82672385 -0.00423724 -3.9277551 -0.08334192 0 0 Z " fill="#ECFEE1" transform="translate(232,146)"/>
<path d="M0 0 C5.21443333 -0.02470935 10.42883261 -0.04286444 15.64331055 -0.05493164 C17.41740513 -0.059962 19.19149556 -0.06678699 20.96557617 -0.07543945 C23.51482161 -0.08756174 26.06401226 -0.09324126 28.61328125 -0.09765625 C29.80405022 -0.10539818 29.80405022 -0.10539818 31.01887512 -0.11329651 C34.27656286 -0.11362877 36.88681521 -0.03772826 40 1 C40 1.66 40 2.32 40 3 C27.46 3 14.92 3 2 3 C2 12.57 2 22.14 2 32 C1.67 32 1.34 32 1 32 C0.97494385 31.32420898 0.9498877 30.64841797 0.92407227 29.95214844 C0.80789258 26.8845832 0.68526563 23.81730842 0.5625 20.75 C0.52318359 19.68652344 0.48386719 18.62304688 0.44335938 17.52734375 C0.40146484 16.50253906 0.35957031 15.47773437 0.31640625 14.421875 C0.27974854 13.47924805 0.24309082 12.53662109 0.20532227 11.56542969 C0.09042769 9.06198208 0.09042769 9.06198208 -0.58227539 6.97363281 C-1.12041696 4.43106331 -0.62407627 2.49630506 0 0 Z " fill="#F5FEED" transform="translate(125,80)"/>
<path d="M0 0 C0.99 0 1.98 0 3 0 C3 12.87 3 25.74 3 39 C-9.54 39 -22.08 39 -35 39 C-35 38.34 -35 37.68 -35 37 C-22.79 36.67 -10.58 36.34 2 36 C2 24.45 2 12.9 2 1 C1.34 0.67 0.68 0.34 0 0 Z " fill="#88B364" transform="translate(228,148)"/>
<path d="M0 0 C12.87 0 25.74 0 39 0 C38.34 0.99 37.68 1.98 37 3 C34.33571863 3.36280794 31.89250844 3.53682269 29.21875 3.58203125 C28.44946167 3.6047258 27.68017334 3.62742035 26.88757324 3.65080261 C25.26035101 3.69541527 23.63291595 3.73276478 22.00537109 3.76342773 C19.50921654 3.81231948 17.01489452 3.88778606 14.51953125 3.96679688 C12.94014353 4.00679417 11.36071606 4.04525741 9.78125 4.08203125 C9.0322644 4.10481644 8.28327881 4.12760162 7.51159668 4.15107727 C5.67391752 4.17884616 3.83524931 4.09846717 2 4 C1.34 3.34 0.68 2.68 0 2 C0 1.34 0 0.68 0 0 Z " fill="#F5FEEF" transform="translate(61,121)"/>
<path d="M0 0 C0 0.99 0 1.98 0 3 C-1.32 2.67 -2.64 2.34 -4 2 C-4 2.66 -4 3.32 -4 4 C-14.89 4 -25.78 4 -37 4 C-37.33 3.01 -37.66 2.02 -38 1 C-25.46 0.67 -12.92 0.34 0 0 Z " fill="#F4FEEF" transform="translate(165,120)"/>
<path d="M0 0 C0.99 0 1.98 0 3 0 C3 0.66 3 1.32 3 2 C6.96 2 10.92 2 15 2 C15 1.34 15 0.68 15 0 C15.99 0 16.98 0 18 0 C17.625 2.4375 17.625 2.4375 17 5 C14.23547967 6.38226016 11.9538637 6.09525387 8.875 6.0625 C7.77929688 6.05347656 6.68359375 6.04445312 5.5546875 6.03515625 C4.71164063 6.02355469 3.86859375 6.01195312 3 6 C3 6.66 3 7.32 3 8 C2.01 8 1.02 8 0 8 C0 7.34 0 6.68 0 6 C-1.65 6 -3.3 6 -5 6 C-5 4.68 -5 3.36 -5 2 C-3.35 2 -1.7 2 0 2 C0 1.34 0 0.68 0 0 Z " fill="#2C2C2C" transform="translate(14,203)"/>
<path d="M0 0 C0.99 0 1.98 0 3 0 C3 12.87 3 25.74 3 39 C0.49557888 35.24336832 0.65114563 32.18991875 0.5859375 27.83203125 C0.56657135 27.03721848 0.5472052 26.2424057 0.5272522 25.42350769 C0.46750558 22.88661405 0.42109117 20.34967491 0.375 17.8125 C0.33681565 16.09177716 0.29776365 14.37107335 0.2578125 12.65039062 C0.16180821 8.43374835 0.07775924 4.2170166 0 0 Z " fill="#F3FEDF" transform="translate(124,148)"/>
<path d="M0 0 C1.32 0 2.64 0 4 0 C4.33 0.99 4.66 1.98 5 3 C9.29 3.33 13.58 3.66 18 4 C18 5.32 18 6.64 18 8 C12.06 8 6.12 8 0 8 C0 7.01 0 6.02 0 5 C0.66 4.67 1.32 4.34 2 4 C1.34 3.67 0.68 3.34 0 3 C0 2.01 0 1.02 0 0 Z " fill="#343132" transform="translate(14,184)"/>
<path d="M0 0 C1.1875 1.6875 1.1875 1.6875 1.1875 3.6875 C2.5075 4.3475 3.8275 5.0075 5.1875 5.6875 C4.5275 7.0075 3.8675 8.3275 3.1875 9.6875 C-4.5625 9.8125 -4.5625 9.8125 -6.8125 8.6875 C-6.4825 7.0375 -6.1525 5.3875 -5.8125 3.6875 C-5.1525 3.6875 -4.4925 3.6875 -3.8125 3.6875 C-3.8125 2.6975 -3.8125 1.7075 -3.8125 0.6875 C-4.8025 0.3575 -5.7925 0.0275 -6.8125 -0.3125 C-2.28877737 -1.65739051 -2.28877737 -1.65739051 0 0 Z " fill="#E4E4E4" transform="translate(23.8125,110.3125)"/>
<path d="M0 0 C-0.33 1.32 -0.66 2.64 -1 4 C-1.99 4 -2.98 4 -4 4 C-4.042721 5.66611905 -4.04063832 7.33382885 -4 9 C-2.03177114 10.96822886 1.34808709 10.66248381 4 11 C4 11.99 4 12.98 4 14 C2.56344146 14.08131463 1.1255517 14.13933559 -0.3125 14.1875 C-1.51326172 14.23970703 -1.51326172 14.23970703 -2.73828125 14.29296875 C-5 14 -5 14 -6.765625 12.73828125 C-8.63562213 10.10489921 -8.47677435 8.0173928 -8.35546875 4.875 C-8 3 -8 3 -6.25 1 C-4 0 -4 0 0 0 Z " fill="#2C2B2B" transform="translate(22,270)"/>
<path d="M0 0 C12.21 0 24.42 0 37 0 C37 0.66 37 1.32 37 2 C37.66 2.33 38.32 2.66 39 3 C26.13 3 13.26 3 0 3 C0 2.01 0 1.02 0 0 Z " fill="#F4FEED" transform="translate(61,80)"/>
<path d="M0 0 C2.31 0.33 4.62 0.66 7 1 C7.33 1.99 7.66 2.98 8 4 C10.00016466 5.20882096 10.00016466 5.20882096 12 6 C11.34 7.32 10.68 8.64 10 10 C2.25 10.125 2.25 10.125 0 9 C0.33 7.35 0.66 5.7 1 4 C1.66 4 2.32 4 3 4 C3 3.01 3 2.02 3 1 C2.01 0.67 1.02 0.34 0 0 Z " fill="#E7E7E7" transform="translate(17,134)"/>
<path d="M0 0 C0 12.54 0 25.08 0 38 C-0.33 38 -0.66 38 -1 38 C-1.81502618 34.3831151 -2.16711995 30.95736561 -2.28125 27.25390625 C-2.31863281 26.16916016 -2.35601562 25.08441406 -2.39453125 23.96679688 C-2.42933594 22.84337891 -2.46414062 21.71996094 -2.5 20.5625 C-2.56926366 18.33451885 -2.64206821 16.10664442 -2.71875 13.87890625 C-2.74904297 12.8947876 -2.77933594 11.91066895 -2.81054688 10.89672852 C-3.00793849 7.87862087 -3.45512475 4.97337539 -4 2 C-1 0 -1 0 0 0 Z " fill="#F5FEED" transform="translate(61,83)"/>
<path d="M0 0 C1.80404297 0.07927734 1.80404297 0.07927734 3.64453125 0.16015625 C6.19401042 0.28255208 8.74348958 0.40494792 11.29296875 0.52734375 C12.49566406 0.58019531 13.69835937 0.63304688 14.9375 0.6875 C16.04544922 0.74099609 17.15339844 0.79449219 18.29492188 0.84960938 C20.94283538 1.04222918 20.94283538 1.04222918 22.96875 -0.15625 C24.64529729 0.12317455 26.31483154 0.45203247 27.96875 0.84375 C27.96875 1.50375 27.96875 2.16375 27.96875 2.84375 C16.08875 2.84375 4.20875 2.84375 -8.03125 2.84375 C-8.03125 2.18375 -8.03125 1.52375 -8.03125 0.84375 C-5.24531309 -0.54921845 -3.10748016 -0.15004122 0 0 Z " fill="#F5FEEE" transform="translate(203.03125,80.15625)"/>
<path d="M0 0 C1.45792884 -0.05399736 2.91642712 -0.09279177 4.375 -0.125 C5.18710937 -0.14820313 5.99921875 -0.17140625 6.8359375 -0.1953125 C9 0 9 0 11 2 C10.75 4.0625 10.75 4.0625 10 6 C6.98675805 7.50662097 4.31713623 7.17770373 1 7 C0.34 6.34 -0.32 5.68 -1 5 C-0.625 2.375 -0.625 2.375 0 0 Z " fill="#F0EFF0" transform="translate(18,274)"/>
<path d="M0 0 C5.94 0 11.88 0 18 0 C18 1.32 18 2.64 18 4 C12.06 4 6.12 4 0 4 C0 2.68 0 1.36 0 0 Z " fill="#201E1F" transform="translate(14,96)"/>
<path d="M0 0 C1.45792884 -0.05399736 2.91642712 -0.09279177 4.375 -0.125 C5.18710937 -0.14820312 5.99921875 -0.17140625 6.8359375 -0.1953125 C9 0 9 0 11 2 C10.75 4.0625 10.75 4.0625 10 6 C6.98675805 7.50662097 4.31713623 7.17770373 1 7 C0.34 6.34 -0.32 5.68 -1 5 C-0.625 2.375 -0.625 2.375 0 0 Z " fill="#EAEAEA" transform="translate(18,74)"/>
<path d="M0 0 C11.55 0 23.1 0 35 0 C35.495 0.99 35.495 0.99 36 2 C25.44 2 14.88 2 4 2 C3.67 2.66 3.34 3.32 3 4 C3 3.34 3 2.68 3 2 C2.01 2 1.02 2 0 2 C0 1.34 0 0.68 0 0 Z " fill="#EFFDE4" transform="translate(196,187)"/>
<path d="M0 0 C2.75589777 0.01747927 5.38786676 0.13863271 8.125 0.375 C8.87910156 0.43171875 9.63320313 0.4884375 10.41015625 0.546875 C12.27418096 0.6884465 14.13721137 0.84299959 16 1 C16 2.32 16 3.64 16 5 C10.06 5 4.12 5 -2 5 C-2 2 -2 2 0 0 Z " fill="#2E2E2E" transform="translate(16,53)"/>
<path d="M0 0 C5.94 0 11.88 0 18 0 C18 0.99 18 1.98 18 3 C17.01 3.495 17.01 3.495 16 4 C16 5.65 16 7.3 16 9 C15.71125 8.360625 15.4225 7.72125 15.125 7.0625 C14.17176549 4.84793921 14.17176549 4.84793921 12 4 C9.9625237 3.77141886 7.91959697 3.58975722 5.875 3.4375 C4.23144531 3.31181641 4.23144531 3.31181641 2.5546875 3.18359375 C1.71164062 3.12300781 0.86859375 3.06242188 0 3 C0 2.01 0 1.02 0 0 Z " fill="#222021" transform="translate(14,160)"/>
<path d="M0 0 C0.99 0 1.98 0 3 0 C3 1.32 3 2.64 3 4 C6.91063224 5.47047336 6.91063224 5.47047336 11 6 C10.34 7.32 9.68 8.64 9 10 C1.25 10.125 1.25 10.125 -1 9 C-0.67 7.35 -0.34 5.7 0 4 C0.66 4 1.32 4 2 4 C2 3.01 2 2.02 2 1 C1.34 0.67 0.68 0.34 0 0 Z " fill="#ECECEC" transform="translate(18,295)"/>
<path d="M0 0 C0.99 0.33 1.98 0.66 3 1 C3 1.66 3 2.32 3 3 C3.020625 3.94875 3.04125 4.8975 3.0625 5.875 C3 9 3 9 2.50219727 10.87011719 C1.9114102 13.37572068 1.88738037 15.62942443 1.90234375 18.203125 C1.90556641 19.1828125 1.90878906 20.1625 1.91210938 21.171875 C1.92048828 22.18765625 1.92886719 23.2034375 1.9375 24.25 C1.94201172 25.28125 1.94652344 26.3125 1.95117188 27.375 C1.96293912 29.91672573 1.97937989 32.45833319 2 35 C1.01 35.495 1.01 35.495 0 36 C0 24.12 0 12.24 0 0 Z " fill="#F6FEEB" transform="translate(165,83)"/>
<path d="M0 0 C1.98 0 3.96 0 6 0 C5.67 1.32 5.34 2.64 5 4 C5 3.01 5 2.02 5 1 C3.68 1 2.36 1 1 1 C1 1.99 1 2.98 1 4 C1.99 4.33 2.98 4.66 4 5 C3.01 5.33 2.02 5.66 1 6 C1 6.99 1 7.98 1 9 C6.94 9 12.88 9 19 9 C19 9.33 19 9.66 19 10 C15.89601022 10.08710289 12.79233452 10.14042309 9.6875 10.1875 C8.80642578 10.21263672 7.92535156 10.23777344 7.01757812 10.26367188 C5.74624023 10.27817383 5.74624023 10.27817383 4.44921875 10.29296875 C3.66893311 10.3086792 2.88864746 10.32438965 2.0847168 10.34057617 C-0.49903853 9.91847304 -1.36292167 8.98510058 -3 7 C-1.125 2.25 -1.125 2.25 0 0 Z " fill="#D1D1D1" transform="translate(13,183)"/>
<path d="M0 0 C3.875 0.875 3.875 0.875 5 2 C5.46993007 9.28391608 5.46993007 9.28391608 3.6875 12 C2 13 2 13 -1 13 C-1 11.68 -1 10.36 -1 9 C-0.34 8.67 0.32 8.34 1 8 C0.67 5.36 0.34 2.72 0 0 Z " fill="#2A2929" transform="translate(27,221)"/>
<path d="M0 0 C0 0.99 0 1.98 0 3 C-0.99 3.495 -0.99 3.495 -2 4 C-2.65213292 6.02463255 -2.65213292 6.02463255 -3 8 C-2.34 8 -1.68 8 -1 8 C-0.67 8.99 -0.34 9.98 0 11 C-0.99 11.33 -1.98 11.66 -3 12 C-6.87533393 8.730187 -6.87533393 8.730187 -7.4375 5.4375 C-7 3 -7 3 -5.75 1.1875 C-4 0 -4 0 0 0 Z " fill="#313030" transform="translate(20,111)"/>
<path d="M0 0 C1.32 0.33 2.64 0.66 4 1 C3.34 1 2.68 1 2 1 C2.185625 2.134375 2.37125 3.26875 2.5625 4.4375 C2.706875 5.613125 2.85125 6.78875 3 8 C2.67 8.33 2.34 8.66 2 9 C1.84193469 10.92478813 1.748865 12.8549921 1.68359375 14.78515625 C1.64169922 15.95498047 1.59980469 17.12480469 1.55664062 18.33007812 C1.51732422 19.56177734 1.47800781 20.79347656 1.4375 22.0625 C1.39431641 23.29806641 1.35113281 24.53363281 1.30664062 25.80664062 C1.20015802 28.87097335 1.09814576 31.93539073 1 35 C0.67 35 0.34 35 0 35 C0 23.45 0 11.9 0 0 Z " fill="#F4FEED" transform="translate(100,86)"/>
<path d="M0 0 C1.98 0.66 3.96 1.32 6 2 C6 2.33 6 2.66 6 3 C5.236875 3 4.47375 3 3.6875 3 C0.8993117 3.70180149 0.8993117 3.70180149 0 5.84765625 C-0.74668651 7.88309495 -1.41515529 9.91262742 -2 12 C-2.99 12 -3.98 12 -5 12 C-5 10.35 -5 8.7 -5 7 C-4.34 7 -3.68 7 -3 7 C-2.67 5.35 -2.34 3.7 -2 2 C-1.34 2 -0.68 2 0 2 C0 1.34 0 0.68 0 0 Z " fill="#E1E1E1" transform="translate(22,218)"/>
<path d="M0 0 C1.32 0.33 2.64 0.66 4 1 C4.36601307 8.4422658 4.36601307 8.4422658 2.6875 11 C1 12 1 12 -2 12 C-2 10.68 -2 9.36 -2 8 C-1.34 7.67 -0.68 7.34 0 7 C0 4.69 0 2.38 0 0 Z " fill="#272526" transform="translate(28,22)"/>
<path d="M0 0 C1.18851563 0.00902344 2.37703125 0.01804688 3.6015625 0.02734375 C4.51679688 0.03894531 5.43203125 0.05054688 6.375 0.0625 C6.375 0.3925 6.375 0.7225 6.375 1.0625 C3.735 1.3925 1.095 1.7225 -1.625 2.0625 C-1.955 3.3825 -2.285 4.7025 -2.625 6.0625 C-4.275 6.0625 -5.925 6.0625 -7.625 6.0625 C-7.955 4.4125 -8.285 2.7625 -8.625 1.0625 C-5.74084117 -0.37957941 -3.20778472 -0.03144887 0 0 Z " fill="#D8D8D8" transform="translate(25.625,47.9375)"/>
<path d="M0 0 C1.134375 0.020625 2.26875 0.04125 3.4375 0.0625 C2.7775 1.3825 2.1175 2.7025 1.4375 4.0625 C0.7775 4.0625 0.1175 4.0625 -0.5625 4.0625 C-0.8925 5.0525 -1.2225 6.0425 -1.5625 7.0625 C-3.2125 7.3925 -4.8625 7.7225 -6.5625 8.0625 C-4.38461538 0.07692308 -4.38461538 0.07692308 0 0 Z " fill="#282627" transform="translate(26.5625,20.9375)"/>
<path d="M0 0 C3.96 0 7.92 0 12 0 C12 0.99 12 1.98 12 3 C7.38 3.33 2.76 3.66 -2 4 C-1.34 2.68 -0.68 1.36 0 0 Z " fill="#202020" transform="translate(20,246)"/>
<path d="M0 0 C0.5775 0.37125 1.155 0.7425 1.75 1.125 C1.09 2.445 0.43 3.765 -0.25 5.125 C-2.89 5.125 -5.53 5.125 -8.25 5.125 C-7.26858061 2.67145152 -6.52754408 1.32853232 -4.375 -0.25 C-2.25 -0.875 -2.25 -0.875 0 0 Z " fill="#ECEBEC" transform="translate(27.25,114.875)"/>
<path d="M0 0 C1.95766281 -0.08082094 3.91626728 -0.13910778 5.875 -0.1875 C7.51082031 -0.23970703 7.51082031 -0.23970703 9.1796875 -0.29296875 C10.11039063 -0.19628906 11.04109375 -0.09960938 12 0 C12.66 0.99 13.32 1.98 14 3 C9.38 3 4.76 3 0 3 C0 2.01 0 1.02 0 0 Z " fill="#211F20" transform="translate(14,170)"/>
<path d="M0 0 C0.33 0 0.66 0 1 0 C1.06058594 1.19238281 1.12117187 2.38476562 1.18359375 3.61328125 C1.26801149 5.17969925 1.35265887 6.74610488 1.4375 8.3125 C1.47681641 9.09818359 1.51613281 9.88386719 1.55664062 10.69335938 C1.59853516 11.45068359 1.64042969 12.20800781 1.68359375 12.98828125 C1.73858032 14.03302612 1.73858032 14.03302612 1.79467773 15.09887695 C1.95581153 17.2216572 1.95581153 17.2216572 3 20 C2.5625 22.1875 2.5625 22.1875 2 24 C2.66 24.33 3.32 24.66 4 25 C2.68 24.67 1.36 24.34 0 24 C0 16.08 0 8.16 0 0 Z " fill="#88BA56" transform="translate(194,160)"/>
<path d="M0 0 C-0.55105909 3.9492568 -1.38935371 7.34920174 -3 11 C-3.99 11 -4.98 11 -6 11 C-6 9.68 -6 8.36 -6 7 C-5.34 7 -4.68 7 -4 7 C-4 5.02 -4 3.04 -4 1 C-2 0 -2 0 0 0 Z " fill="#E8E7E8" transform="translate(23,18)"/>
<path d="M0 0 C1.32 0 2.64 0 4 0 C6 5.75 6 5.75 6 8 C4.02 8 2.04 8 0 8 C0 7.01 0 6.02 0 5 C0.66 4.67 1.32 4.34 2 4 C1.34 3.67 0.68 3.34 0 3 C0 2.01 0 1.02 0 0 Z " fill="#222121" transform="translate(14,184)"/>
<path d="M0 0 C4.29 0 8.58 0 13 0 C13 0.99 13 1.98 13 3 C11.20906809 3.08086147 9.41710372 3.13912702 7.625 3.1875 C6.12839844 3.23970703 6.12839844 3.23970703 4.6015625 3.29296875 C3.74304688 3.19628906 2.88453125 3.09960938 2 3 C1.34 2.01 0.68 1.02 0 0 Z " fill="#1E1E1E" transform="translate(19,45)"/>
<path d="M0 0 C1.32 0.66 2.64 1.32 4 2 C3.625 3.9375 3.625 3.9375 3 6 C0.04335481 7.4783226 -2.74229737 7.06032783 -6 7 C-3.94766315 4.7522025 -2.99332739 3.9977758 0 3 C0 2.01 0 1.02 0 0 Z " fill="#E4E3E4" transform="translate(25,274)"/>
<path d="M0 0 C0.66 0.33 1.32 0.66 2 1 C2.59355614 3.64860427 2.74209269 6.29197322 3 9 C1.68 9.33 0.36 9.66 -1 10 C-2.23076923 4.58461538 -2.23076923 4.58461538 -1.0625 1.625 C-0.5365625 0.820625 -0.5365625 0.820625 0 0 Z " fill="#2A2627" transform="translate(443,269)"/>
<path d="M0 0 C0.99 0.33 1.98 0.66 3 1 C2.67 1.66 2.34 2.32 2 3 C1.34 3 0.68 3 0 3 C0 3.66 0 4.32 0 5 C-0.66 5 -1.32 5 -2 5 C-2.33 6.32 -2.66 7.64 -3 9 C-4.65 9 -6.3 9 -8 9 C-7.04270084 7.87411986 -6.08412105 6.7493285 -5.125 5.625 C-4.59132812 4.99851563 -4.05765625 4.37203125 -3.5078125 3.7265625 C-2.38567993 2.44163349 -1.20628025 1.20628025 0 0 Z " fill="#2E2D2E" transform="translate(150,227)"/>
<path d="M0 0 C0.99 0 1.98 0 3 0 C2.625 2.4375 2.625 2.4375 2 5 C-0.76452033 6.38226016 -3.0461363 6.09525387 -6.125 6.0625 C-7.22070312 6.05347656 -8.31640625 6.04445312 -9.4453125 6.03515625 C-10.70988281 6.01775391 -10.70988281 6.01775391 -12 6 C-12 5.67 -12 5.34 -12 5 C-8.7 5 -5.4 5 -2 5 C-2 4.01 -2 3.02 -2 2 C-1.34 2 -0.68 2 0 2 C0 1.34 0 0.68 0 0 Z " fill="#444444" transform="translate(29,203)"/>
<path d="M0 0 C0.99 0 1.98 0 3 0 C3 1.32 3 2.64 3 4 C2.34 4 1.68 4 1 4 C1 5.65 1 7.3 1 9 C1.99 9 2.98 9 4 9 C4 9.66 4 10.32 4 11 C1.525 10.01 1.525 10.01 -1 9 C-1.09765625 2.84765625 -1.09765625 2.84765625 -1 1 C-0.67 0.67 -0.34 0.34 0 0 Z " fill="#2C2B2C" transform="translate(16,221)"/>
<path d="M0 0 C1.98 0.99 1.98 0.99 4 2 C4 4.31 4 6.62 4 9 C2.68 9.33 1.36 9.66 0 10 C0 6.7 0 3.4 0 0 Z " fill="#202020" transform="translate(28,72)"/>
<path d="M0 0 C2.97 0.495 2.97 0.495 6 1 C6.33 1.99 6.66 2.98 7 4 C6.34 4 5.68 4 5 4 C5.33 4.99 5.66 5.98 6 7 C4.02 7.99 4.02 7.99 2 9 C2.33 7.68 2.66 6.36 3 5 C2.01 4.34 1.02 3.68 0 3 C0 2.01 0 1.02 0 0 Z " fill="#363535" transform="translate(25,111)"/>
<path d="M0 0 C0.66 0.33 1.32 0.66 2 1 C0.68334336 2.67987227 -0.65263027 4.34466005 -2 6 C-2.474375 6.61875 -2.94875 7.2375 -3.4375 7.875 C-5 9 -5 9 -7.6875 8.6875 C-8.450625 8.460625 -9.21375 8.23375 -10 8 C-9.195625 7.4121875 -9.195625 7.4121875 -8.375 6.8125 C-5.50791468 4.6244612 -2.76035432 2.32120704 0 0 Z " fill="#E8E6E7" transform="translate(306,301)"/>
<path d="M0 0 C1.32 0.66 2.64 1.32 4 2 C3.67 3.65 3.34 5.3 3 7 C1.68 7 0.36 7 -1 7 C-1 6.34 -1 5.68 -1 5 C-1.66 4.67 -2.32 4.34 -3 4 C-2.01 2.68 -1.02 1.36 0 0 Z " fill="#EEEDEE" transform="translate(442,296)"/>
<path d="M0 0 C0.928125 0.103125 1.85625 0.20625 2.8125 0.3125 C2.4825 1.6325 2.1525 2.9525 1.8125 4.3125 C1.8125 3.3225 1.8125 2.3325 1.8125 1.3125 C0.4925 1.3125 -0.8275 1.3125 -2.1875 1.3125 C-1.8575 2.6325 -1.5275 3.9525 -1.1875 5.3125 C-1.8475 5.3125 -2.5075 5.3125 -3.1875 5.3125 C-3.5175 6.6325 -3.8475 7.9525 -4.1875 9.3125 C-5.375 7.625 -5.375 7.625 -6.1875 5.3125 C-4.78140407 1.44573619 -4.1861092 0.41040286 0 0 Z " fill="#DDDDDD" transform="translate(16.1875,182.6875)"/>
<path d="M0 0 C0.33 0 0.66 0 1 0 C1.33 4.29 1.66 8.58 2 13 C1.34 13 0.68 13 0 13 C-0.66 12.34 -1.32 11.68 -2 11 C-1.7578125 8.3984375 -1.7578125 8.3984375 -1.125 5.375 C-0.92132813 4.37210938 -0.71765625 3.36921875 -0.5078125 2.3359375 C-0.34023437 1.56507813 -0.17265625 0.79421875 0 0 Z " fill="#F6FCEF" transform="translate(124,176)"/>
<path d="M0 0 C1.32 0 2.64 0 4 0 C4 0.99 4 1.98 4 3 C1 5.1875 1 5.1875 -2 7 C-2.125 4.625 -2.125 4.625 -2 2 C-1.34 1.34 -0.68 0.68 0 0 Z " fill="#242424" transform="translate(16,296)"/>
<path d="M0 0 C0.33 0.66 0.66 1.32 1 2 C3.02463255 2.65213292 3.02463255 2.65213292 5 3 C5 3.99 5 4.98 5 6 C5.66 6.33 6.32 6.66 7 7 C6.01 7.33 5.02 7.66 4 8 C2.35 6.35 0.7 4.7 -1 3 C-0.67 2.01 -0.34 1.02 0 0 Z " fill="#302C2D" transform="translate(254,296)"/>
<path d="M0 0 C2.97 0.495 2.97 0.495 6 1 C6.33 1.99 6.66 2.98 7 4 C5.1875 4.625 5.1875 4.625 3 5 C2.01 4.34 1.02 3.68 0 3 C0 2.01 0 1.02 0 0 Z " fill="#3B3B3B" transform="translate(25,296)"/>
<path d="M0 0 C1 4 1 4 -0.9375 7.25 C-1.618125 8.1575 -2.29875 9.065 -3 10 C-3.99 9.34 -4.98 8.68 -6 8 C-4.02 5.36 -2.04 2.72 0 0 Z " fill="#2E2D2E" transform="translate(444,289)"/>
<path d="M0 0 C0.99 0.33 1.98 0.66 3 1 C2.67 2.65 2.34 4.3 2 6 C0.68 6.33 -0.64 6.66 -2 7 C-1.125 1.125 -1.125 1.125 0 0 Z " fill="#E1E0E1" transform="translate(26,224)"/>
<path d="M0 0 C0.99 0.33 1.98 0.66 3 1 C2.67 2.65 2.34 4.3 2 6 C0.68 6.33 -0.64 6.66 -2 7 C-1.125 1.125 -1.125 1.125 0 0 Z " fill="#E1E0E1" transform="translate(26,24)"/>
<path d="M0 0 C0.99 0 1.98 0 3 0 C3.80967438 2.91482778 4.21845993 4.46113217 3.0625 7.3125 C2.5365625 8.1478125 2.5365625 8.1478125 2 9 C1.01 9 0.02 9 -1 9 C-0.67 7.35 -0.34 5.7 0 4 C0.66 4 1.32 4 2 4 C2 3.01 2 2.02 2 1 C1.34 0.67 0.68 0.34 0 0 Z " fill="#D5D5D5" transform="translate(18,295)"/>
<path d="M0 0 C1.98 0.66 3.96 1.32 6 2 C6.33 3.65 6.66 5.3 7 7 C3.535 5.02 3.535 5.02 0 3 C0 2.01 0 1.02 0 0 Z " fill="#323031" transform="translate(149,298)"/>
<path d="M0 0 C1.32 0.66 2.64 1.32 4 2 C4 2.99 4 3.98 4 5 C3.34 5.66 2.68 6.32 2 7 C2 6.34 2 5.68 2 5 C1.01 4.67 0.02 4.34 -1 4 C-0.67 2.68 -0.34 1.36 0 0 Z " fill="#F5F5F5" transform="translate(361,263)"/>
<path d="M0 0 C1.32 0.33 2.64 0.66 4 1 C4 2.65 4 4.3 4 6 C3.01 6 2.02 6 1 6 C-0.6875 4 -0.6875 4 -2 2 C-1.34 2 -0.68 2 0 2 C0 1.34 0 0.68 0 0 Z " fill="#EDEDED" transform="translate(435,226)"/>
<path d="M0 0 C1.65 0 3.3 0 5 0 C5 0.99 5 1.98 5 3 C4.01 3.495 4.01 3.495 3 4 C3 5.65 3 7.3 3 9 C1.35173889 6.03312999 0.55728913 3.34373475 0 0 Z " fill="#1C1A1B" transform="translate(27,160)"/>
<path d="M0 0 C0.66 0 1.32 0 2 0 C2 0.66 2 1.32 2 2 C2.66 2.33 3.32 2.66 4 3 C0.91111478 5.05925681 0.29064073 5.2390374 -3.1875 5.125 C-5.0746875 5.063125 -5.0746875 5.063125 -7 5 C-7 4.67 -7 4.34 -7 4 C-6.030625 3.71125 -5.06125 3.4225 -4.0625 3.125 C-0.89335797 2.35785318 -0.89335797 2.35785318 0 0 Z " fill="#3B3B3B" transform="translate(26,80)"/>
<path d="M0 0 C0.33 0.99 0.66 1.98 1 3 C-1 5 -1 5 -4.125 5.125 C-5.548125 5.063125 -5.548125 5.063125 -7 5 C-6.34 4.34 -5.68 3.68 -5 3 C-4.34 3.33 -3.68 3.66 -3 4 C-3 3.34 -3 2.68 -3 2 C-3.99 1.67 -4.98 1.34 -6 1 C-4.02 0.67 -2.04 0.34 0 0 Z " fill="#333132" transform="translate(23,28)"/>
<path d="M0 0 C2.31 0 4.62 0 7 0 C7 0.99 7 1.98 7 3 C4.36 3 1.72 3 -1 3 C-0.67 2.01 -0.34 1.02 0 0 Z " fill="#1E1C1D" transform="translate(19,281)"/>
<path d="M0 0 C0.99 0.33 1.98 0.66 3 1 C3 3.31 3 5.62 3 8 C2.01 7.67 1.02 7.34 0 7 C-0.99 7.495 -0.99 7.495 -2 8 C-1.34 5.36 -0.68 2.72 0 0 Z " fill="#2D292A" transform="translate(306,272)"/>
<path d="M0 0 C0.66 0.33 1.32 0.66 2 1 C1.67 1.99 1.34 2.98 1 4 C-1.5625 5.1875 -1.5625 5.1875 -4 6 C-4 5.01 -4 4.02 -4 3 C-2 1.3125 -2 1.3125 0 0 Z " fill="#E9E9E9" transform="translate(105,257)"/>
<path d="M0 0 C2.31 0 4.62 0 7 0 C7 0.99 7 1.98 7 3 C5.02 3 3.04 3 1 3 C0.67 2.01 0.34 1.02 0 0 Z " fill="#202020" transform="translate(20,205)"/>
<path d="M0 0 C0.66 0 1.32 0 2 0 C2 0.99 2 1.98 2 3 C1.01 3.495 1.01 3.495 0 4 C-1.13350534 6.01669827 -1.13350534 6.01669827 -2 8 C-2.66 6.68 -3.32 5.36 -4 4 C-3.01 3.67 -2.02 3.34 -1 3 C-0.67 2.01 -0.34 1.02 0 0 Z " fill="#1D1D1D" transform="translate(18,135)"/>
<path d="M0 0 C-0.66 1.32 -1.32 2.64 -2 4 C-3.32 3.67 -4.64 3.34 -6 3 C-5.67 2.67 -5.34 2.34 -5 2 C-5.66 1.34 -6.32 0.68 -7 0 C-3.86650268 -1.04449911 -3.01031744 -0.93423645 0 0 Z " fill="#2A2627" transform="translate(426,258)"/>
<path d="M0 0 C0.66 0 1.32 0 2 0 C0.92598892 2.91517292 0.22189824 4.77810176 -2 7 C-2.66 6.67 -3.32 6.34 -4 6 C-4 5.34 -4 4.68 -4 4 C-3.34 4 -2.68 4 -2 4 C-1.34 2.68 -0.68 1.36 0 0 Z " fill="#2A2A2A" transform="translate(226,287)"/>
<path d="M0 0 C0 1.32 0 2.64 0 4 C-0.99 4.33 -1.98 4.66 -3 5 C-3.99 3.68 -4.98 2.36 -6 1 C-3 0 -3 0 0 0 Z " fill="#323232" transform="translate(368,261)"/>
<path d="M0 0 C2.125 0.375 2.125 0.375 4 1 C2.625 2.5 2.625 2.5 1 4 C0.34 4 -0.32 4 -1 4 C-1.66 4.99 -2.32 5.98 -3 7 C-2.25 2.25 -2.25 2.25 0 0 Z " fill="#383838" transform="translate(16,246)"/>
<path d="M0 0 C0.66 0 1.32 0 2 0 C2 1.32 2 2.64 2 4 C2.66 4.33 3.32 4.66 4 5 C2.68 5.33 1.36 5.66 0 6 C-0.38218767 4.34385343 -0.71395102 2.67542976 -1 1 C-0.67 0.67 -0.34 0.34 0 0 Z " fill="#D6D5D6" transform="translate(394,242)"/>
<path d="M0 0 C1.98 0 3.96 0 6 0 C5.67 0.99 5.34 1.98 5 3 C3.35 3.33 1.7 3.66 0 4 C0 2.68 0 1.36 0 0 Z " fill="#413F40" transform="translate(26,230)"/>
<path d="M0 0 C2.97 0.495 2.97 0.495 6 1 C5.34 2.32 4.68 3.64 4 5 C2.68 4.34 1.36 3.68 0 3 C0 2.01 0 1.02 0 0 Z " fill="#3D3D3D" transform="translate(25,135)"/>
<path d="M0 0 C2.31 0 4.62 0 7 0 C6.01 1.485 6.01 1.485 5 3 C1.875 3.1875 1.875 3.1875 -1 3 C-0.67 2.01 -0.34 1.02 0 0 Z " fill="#1A1A1A" transform="translate(19,81)"/>
<path d="M0 0 C1.98 0 3.96 0 6 0 C5.67 0.99 5.34 1.98 5 3 C3.35 3.33 1.7 3.66 0 4 C0 2.68 0 1.36 0 0 Z " fill="#413F40" transform="translate(26,30)"/>
<path d="M0 0 C2 3 2 3 3 6 C2.0625 9.1875 2.0625 9.1875 1 12 C0.67 12 0.34 12 0 12 C0 8.04 0 4.08 0 0 Z " fill="#4F4E4F" transform="translate(132,258)"/>
<path d="M0 0 C0.66 0.33 1.32 0.66 2 1 C2 1.99 2 2.98 2 4 C0 5.6875 0 5.6875 -2 7 C-2.6875 5.1875 -2.6875 5.1875 -3 3 C-1.5625 1.25 -1.5625 1.25 0 0 Z " fill="#393536" transform="translate(102,224)"/>
<path d="M0 0 C1.32 0.33 2.64 0.66 4 1 C3.67 2.32 3.34 3.64 3 5 C2.01 5 1.02 5 0 5 C0 3.35 0 1.7 0 0 Z " fill="#D3D1D2" transform="translate(17,225)"/>
</svg>
